<mxfile host="app.diagrams.net" agent="Mozilla/5.0 (Macintosh; Intel Mac OS X 10_15_7) AppleWebKit/537.36 (KHTML, like Gecko) Chrome/127.0.0.0 Safari/537.36" version="24.7.7">
  <diagram name="第 1 页" id="OCJgMu24JSGYYykA9SSq">
    <mxGraphModel dx="1781" dy="606" grid="1" gridSize="10" guides="1" tooltips="1" connect="1" arrows="1" fold="1" page="1" pageScale="1" pageWidth="827" pageHeight="1169" math="0" shadow="0">
      <root>
        <mxCell id="0" />
        <mxCell id="1" parent="0" />
        <mxCell id="1pVqOFEY8p2pe4TuLNSA-4" value="" style="rounded=0;whiteSpace=wrap;html=1;dashed=1;dashPattern=12 12;" vertex="1" parent="1">
          <mxGeometry x="90" y="200" width="710" height="80" as="geometry" />
        </mxCell>
        <mxCell id="1pVqOFEY8p2pe4TuLNSA-5" style="edgeStyle=orthogonalEdgeStyle;rounded=0;orthogonalLoop=1;jettySize=auto;html=1;entryX=0;entryY=0.5;entryDx=0;entryDy=0;" edge="1" parent="1" source="1pVqOFEY8p2pe4TuLNSA-6" target="1pVqOFEY8p2pe4TuLNSA-8">
          <mxGeometry relative="1" as="geometry" />
        </mxCell>
        <mxCell id="1pVqOFEY8p2pe4TuLNSA-6" value="&lt;b&gt;&lt;font style=&quot;font-size: 15px;&quot;&gt;Hand-Craft特征计算&lt;/font&gt;&lt;/b&gt;&lt;span style=&quot;background-color: initial;&quot;&gt;Location/IoU/Direction/PointNum/...&lt;/span&gt;" style="rounded=0;whiteSpace=wrap;html=1;" vertex="1" parent="1">
          <mxGeometry x="100" y="210" width="210" height="60" as="geometry" />
        </mxCell>
        <mxCell id="1pVqOFEY8p2pe4TuLNSA-7" style="edgeStyle=orthogonalEdgeStyle;rounded=0;orthogonalLoop=1;jettySize=auto;html=1;entryX=0;entryY=0.5;entryDx=0;entryDy=0;" edge="1" parent="1" source="1pVqOFEY8p2pe4TuLNSA-8" target="1pVqOFEY8p2pe4TuLNSA-9">
          <mxGeometry relative="1" as="geometry" />
        </mxCell>
        <mxCell id="1pVqOFEY8p2pe4TuLNSA-8" value="&lt;b&gt;&lt;font style=&quot;font-size: 15px;&quot;&gt;Learning模型求解&lt;/font&gt;&lt;/b&gt;&lt;div&gt;sensor-agnostic&lt;/div&gt;" style="rounded=0;whiteSpace=wrap;html=1;fillColor=#dae8fc;strokeColor=#6c8ebf;" vertex="1" parent="1">
          <mxGeometry x="340" y="210" width="210" height="60" as="geometry" />
        </mxCell>
        <mxCell id="1pVqOFEY8p2pe4TuLNSA-9" value="&lt;span style=&quot;font-size: 15px;&quot;&gt;&lt;b&gt;匹配求解&lt;/b&gt;&lt;/span&gt;&lt;div style=&quot;&quot;&gt;&lt;span style=&quot;background-color: rgb(255, 255, 255); font-family: -apple-system, &amp;quot;system-ui&amp;quot;, &amp;quot;Segoe UI&amp;quot;, Helvetica, Arial, sans-serif, &amp;quot;Apple Color Emoji&amp;quot;, &amp;quot;Segoe UI Emoji&amp;quot;; text-align: start;&quot;&gt;Hungarian/KM/&lt;/span&gt;&lt;span style=&quot;background-color: initial;&quot;&gt;GNN&lt;/span&gt;&lt;/div&gt;" style="rounded=0;whiteSpace=wrap;html=1;" vertex="1" parent="1">
          <mxGeometry x="580" y="210" width="210" height="60" as="geometry" />
        </mxCell>
        <mxCell id="1pVqOFEY8p2pe4TuLNSA-21" value="" style="rounded=0;whiteSpace=wrap;html=1;dashed=1;dashPattern=12 12;" vertex="1" parent="1">
          <mxGeometry x="91" y="301" width="710" height="80" as="geometry" />
        </mxCell>
        <mxCell id="1pVqOFEY8p2pe4TuLNSA-22" style="edgeStyle=orthogonalEdgeStyle;rounded=0;orthogonalLoop=1;jettySize=auto;html=1;entryX=0;entryY=0.5;entryDx=0;entryDy=0;" edge="1" parent="1" source="1pVqOFEY8p2pe4TuLNSA-23" target="1pVqOFEY8p2pe4TuLNSA-25">
          <mxGeometry relative="1" as="geometry" />
        </mxCell>
        <mxCell id="1pVqOFEY8p2pe4TuLNSA-23" value="&lt;b&gt;&lt;font style=&quot;font-size: 15px;&quot;&gt;Hand-Craft特征计算&lt;/font&gt;&lt;/b&gt;&lt;span style=&quot;background-color: initial;&quot;&gt;Location/IoU/Direction/PointNum/...&lt;/span&gt;" style="rounded=0;whiteSpace=wrap;html=1;" vertex="1" parent="1">
          <mxGeometry x="101" y="311" width="210" height="60" as="geometry" />
        </mxCell>
        <mxCell id="1pVqOFEY8p2pe4TuLNSA-24" style="edgeStyle=orthogonalEdgeStyle;rounded=0;orthogonalLoop=1;jettySize=auto;html=1;entryX=0;entryY=0.5;entryDx=0;entryDy=0;" edge="1" parent="1" source="1pVqOFEY8p2pe4TuLNSA-25" target="1pVqOFEY8p2pe4TuLNSA-26">
          <mxGeometry relative="1" as="geometry" />
        </mxCell>
        <mxCell id="1pVqOFEY8p2pe4TuLNSA-25" value="&lt;b&gt;&lt;font style=&quot;font-size: 15px;&quot;&gt;Hand-Craft特征加权&lt;/font&gt;&lt;/b&gt;&lt;div&gt;hesai40/hesai90/at128_fusion&lt;/div&gt;" style="rounded=0;whiteSpace=wrap;html=1;fillColor=#f5f5f5;fontColor=#333333;strokeColor=#666666;" vertex="1" parent="1">
          <mxGeometry x="341" y="311" width="210" height="60" as="geometry" />
        </mxCell>
        <mxCell id="1pVqOFEY8p2pe4TuLNSA-26" value="&lt;span style=&quot;font-size: 15px;&quot;&gt;&lt;b&gt;匹配求解&lt;/b&gt;&lt;/span&gt;&lt;div style=&quot;&quot;&gt;&lt;span style=&quot;background-color: rgb(255, 255, 255); font-family: -apple-system, &amp;quot;system-ui&amp;quot;, &amp;quot;Segoe UI&amp;quot;, Helvetica, Arial, sans-serif, &amp;quot;Apple Color Emoji&amp;quot;, &amp;quot;Segoe UI Emoji&amp;quot;; text-align: start;&quot;&gt;Hungarian/KM/&lt;/span&gt;&lt;span style=&quot;background-color: initial;&quot;&gt;GNN&lt;/span&gt;&lt;/div&gt;" style="rounded=0;whiteSpace=wrap;html=1;" vertex="1" parent="1">
          <mxGeometry x="581" y="311" width="210" height="60" as="geometry" />
        </mxCell>
        <mxCell id="1pVqOFEY8p2pe4TuLNSA-27" value="Two-Stage" style="text;html=1;align=center;verticalAlign=middle;resizable=0;points=[];autosize=1;strokeColor=none;fillColor=none;fontStyle=1;fontSize=18;" vertex="1" parent="1">
          <mxGeometry x="-35" y="213" width="110" height="40" as="geometry" />
        </mxCell>
        <mxCell id="1pVqOFEY8p2pe4TuLNSA-29" value="Rule" style="text;html=1;align=center;verticalAlign=middle;resizable=0;points=[];autosize=1;strokeColor=none;fillColor=none;fontStyle=1;fontSize=18;" vertex="1" parent="1">
          <mxGeometry x="-10" y="321" width="60" height="40" as="geometry" />
        </mxCell>
      </root>
    </mxGraphModel>
  </diagram>
</mxfile>
